<?xml version="1.0"?>
<svg version="1.1" xmlns="http://www.w3.org/2000/svg" width="270px" height="60px" style=""><path fill="#e632d4" d="M50.74462890625,38.60595703125q0-2.64892578125,0.238037109375-5.303955078125t0.994873046875-5.230712890625q0.2197265625-0.76904296875,0.57373046875-1.519775390625t0.86669921875-1.336669921875t1.220703125-0.9521484375t1.6845703125-0.3662109375l0.25634765625,0.0244140625q1.0498046875,0.146484375,1.55029296875,0.848388671875t0.50048828125,1.751708984375q0,0.28076171875-0.067138671875,0.701904296875t-0.213623046875,0.811767578125t-0.396728515625,0.665283203125t-0.628662109375,0.274658203125q-0.1708984375-0.0244140625-0.311279296875-0.06103515625t-0.262451171875-0.15869140625q0.1953125-0.42724609375,0.347900390625-0.89111328125t0.152587890625-1.06201171875q0-0.2197265625-0.03662109375-0.5615234375t-0.140380859375-0.677490234375t-0.274658203125-0.5859375t-0.47607421875-0.250244140625q-0.76904296875,0-1.2939453125,0.860595703125t-0.87890625,2.197265625t-0.52490234375,2.9541015625t-0.262451171875,3.125t-0.103759765625,2.72216796875t-0.01220703125,1.715087890625q0,0.5859375-0.01220703125,1.2939453125l0,0.15869140625q0.01220703125,0.62255859375,0.08544921875,1.18408203125q0.09765625,0.634765625,0.37841796875,1.0986328125t0.87890625,0.537109375q0.18310546875,0.0244140625,0.35400390625,0.0244140625q0.7080078125,0,1.28173828125-0.40283203125q0.7080078125-0.50048828125,1.25732421875-1.300048828125t0.9765625-1.7578125t0.787353515625-1.812744140625t0.701904296875-1.416015625t0.7080078125-0.5615234375q0.1220703125,0,0.3662109375,0.048828125t0.244140625,0.23193359375q0,0.048828125-0.0244140625,0.13427734375t-0.06103515625,0.13427734375q-0.32958984375,1.2939453125-0.836181640625,2.685546875t-1.2939453125,2.532958984375t-1.9287109375,1.861572265625t-2.740478515625,0.72021484375q-1.1474609375,0-1.861572265625-0.433349609375t-1.0986328125-1.15966796875t-0.52490234375-1.641845703125t-0.140380859375-1.85546875z M63.753295898438,42.2802734375q0-0.35400390625,0.030517578125-0.74462890625t0.054931640625-0.732421875l0.0732421875-1.8310546875q0.1220703125-2.197265625,0.299072265625-4.3212890625t0.299072265625-4.296875q0.0732421875-1.1962890625,0.10986328125-2.349853515625t0.10986328125-2.349853515625q-0.048828125-0.09765625-0.048828125-0.13427734375q0-0.1708984375,0.128173828125-0.2685546875t0.299072265625-0.164794921875t0.360107421875-0.091552734375t0.286865234375-0.0244140625l0.28076171875,0q0.37841796875,0.048828125,0.54931640625,0.238037109375t0.2197265625,0.45166015625t0.0244140625,0.5615234375t-0.0244140625,0.555419921875q0,1.77001953125-0.08544921875,3.607177734375t-0.1953125,3.6865234375t-0.201416015625,3.69873046875t-0.091552734375,3.656005859375l0,0.8544921875q0,0.57373046875-0.323486328125,0.7568359375t-0.897216796875,0.18310546875q-0.50048828125,0-0.87890625-0.2197265625t-0.37841796875-0.72021484375z M69.352294921875,37.65380859375q0-1.123046875,0.262451171875-2.203369140625t0.445556640625-2.154541015625q0.048828125-0.28076171875,0.384521484375-0.347900390625t0.567626953125-0.067138671875q0.40283203125,0,0.64697265625,0.1220703125q0.09765625,0.048828125,0.18310546875,0.10986328125t0.08544921875,0.15869140625q0,1.0498046875-0.250244140625,2.05078125t-0.250244140625,2.1240234375q0,0.37841796875,0.054931640625,0.714111328125t0.103759765625,0.665283203125l0.0732421875,0.35400390625q0,0.09765625,0.01220703125,0.1708984375t0.03662109375,0.1708984375q0,0.2197265625-0.311279296875,0.299072265625t-0.543212890625,0.079345703125q-0.35400390625,0-0.653076171875-0.140380859375t-0.469970703125-0.482177734375l-0.1708984375-0.35400390625q-0.146484375-0.28076171875-0.146484375-0.628662109375t-0.06103515625-0.640869140625z M70.133544921875,30.30517578125l0-0.23193359375q0-0.57373046875,0.286865234375-1.025390625t0.860595703125-0.45166015625q0.0732421875,0,0.140380859375,0.01220703125t0.140380859375,0.01220703125q0.146484375,0.0244140625,0.384521484375,0.115966796875t0.238037109375,0.286865234375l0,0.0244140625q-0.048828125,0.09765625-0.06103515625,0.201416015625t-0.06103515625,0.177001953125l0.0244140625-0.0244140625q-0.146484375,0.37841796875-0.238037109375,0.6103515625t-0.201416015625,0.372314453125t-0.274658203125,0.201416015625t-0.469970703125,0.06103515625q-0.048828125,0-0.1708984375-0.01220703125t-0.262451171875-0.048828125t-0.238037109375-0.09765625t-0.09765625-0.18310546875z M74.682739257812,38.447265625q0-0.8544921875,0.189208984375-2.01416015625t0.640869140625-2.197265625t1.190185546875-1.763916015625t1.861572265625-0.726318359375q1.0498046875,0,1.57470703125,0.604248046875t0.52490234375,1.629638671875q0,0.67138671875-0.250244140625,1.470947265625t-0.714111328125,1.513671875t-1.0986328125,1.190185546875t-1.416015625,0.47607421875l-0.3173828125-0.0244140625q0,0.32958984375,0.09765625,0.885009765625t0.286865234375,1.104736328125t0.48828125,0.96435546875t0.726318359375,0.4150390625q0.62255859375,0,1.1962890625-0.50048828125t1.08642578125-1.11083984375t0.9521484375-1.11083984375t0.8056640625-0.50048828125q0.1953125,0,0.40283203125,0.06103515625t0.23193359375,0.341796875q0,0.1708984375-0.091552734375,0.28076171875t-0.164794921875,0.244140625q-0.37841796875,0.64697265625-0.823974609375,1.23291015625t-1.007080078125,1.06201171875t-1.226806640625,0.750732421875t-1.470947265625,0.274658203125q-1.0498046875,0-1.74560546875-0.372314453125t-1.123046875-1.0009765625t-0.616455078125-1.45263671875t-0.189208984375-1.727294921875z M76.867797851562,37.51953125l0.341796875,0.30517578125q0.244140625,0.2197265625,0.48828125,0.09765625t0.439453125-0.445556640625t0.360107421875-0.799560546875t0.29296875-0.9765625t0.189208984375-0.9765625t0.06103515625-0.79345703125l0-0.4150390625t-0.03662109375-0.439453125t-0.128173828125-0.347900390625t-0.286865234375-0.177001953125q-0.06103515625-0.01220703125-0.10986328125-0.01220703125q-0.4150390625,0-0.7080078125,0.52490234375q-0.3173828125,0.5859375-0.5126953125,1.422119140625t-0.28076171875,1.715087890625t-0.10986328125,1.318359375z M84.89599609375,38.0078125l0-0.35400390625q0-0.439453125,0.0244140625-0.830078125q0.0244140625-0.54931640625,0.0244140625-0.9033203125q0-0.1953125,0.0244140625-0.445556640625t0.1220703125-0.396728515625q0.1220703125-0.1220703125,0.286865234375-0.250244140625t0.360107421875-0.128173828125q0.62255859375,0,0.9765625,0.140380859375t0.37841796875,0.579833984375l0.048828125,0.37841796875q0.2197265625-0.52490234375,0.5859375-1.300048828125t0.848388671875-1.47705078125t1.08642578125-1.1962890625t1.275634765625-0.494384765625q0.62255859375,0,1.025390625,0.5859375t0.640869140625,1.495361328125t0.335693359375,2.0263671875t0.13427734375,2.191162109375t0.048828125,1.959228515625t0.08544921875,1.336669921875q0.048828125,0.37841796875,0.164794921875,0.799560546875t0.115966796875,0.775146484375q0,0.09765625-0.140380859375,0.189208984375t-0.299072265625,0.152587890625t-0.323486328125,0.09765625t-0.238037109375,0.03662109375q-0.47607421875,0-0.677490234375-0.714111328125t-0.250244140625-1.788330078125t-0.048828125-2.325439453125t-0.08544921875-2.325439453125t-0.347900390625-1.788330078125t-0.836181640625-0.738525390625q-0.52490234375,0-1.08642578125,0.677490234375t-0.96435546875,1.800537109375q-0.390625,1.123046875-0.537109375,2.55126953125q-0.048828125,0.45166015625-0.048828125,0.9033203125q0,0.98876953125,0.20751953125,1.9775390625q0.0244140625,0.1708984375-0.140380859375,0.25634765625t-0.408935546875,0.13427734375t-0.494384765625,0.06103515625t-0.384521484375,0.01220703125q-0.47607421875,0-0.762939453125-0.335693359375t-0.445556640625-0.860595703125t-0.213623046875-1.177978515625t-0.067138671875-1.287841796875z M95.487670898438,30.1953125q0-0.1708984375,0.3662109375-0.29296875t0.830078125-0.201416015625t0.897216796875-0.115966796875t0.592041015625-0.06103515625q0-0.32958984375,0.0244140625-0.665283203125t0.13427734375-0.59814453125t0.347900390625-0.421142578125t0.665283203125-0.15869140625q0.35400390625,0,0.537109375,0.08544921875t0.390625,0.35400390625q0.048828125,0.146484375,0.048828125,0.28076171875l0,0.408935546875t-0.0244140625,0.421142578125q0.45166015625-0.048828125,0.897216796875-0.115966796875t0.897216796875-0.067138671875q0.32958984375,0,0.45166015625,0.01220703125t0.244140625,0.29296875q0.09765625,0.28076171875-0.238037109375,0.42724609375t-0.8056640625,0.2197265625t-0.933837890625,0.10986328125t-0.5615234375,0.03662109375q-0.146484375,2.099609375-0.299072265625,4.16259765625t-0.152587890625,4.18701171875q0,0.9521484375,0.06103515625,1.96533203125t0.341796875,1.91650390625q0.0732421875,0.28076171875,0.244140625,0.52490234375t0.1708984375,0.52490234375q0,0.1708984375-0.13427734375,0.2685546875t-0.323486328125,0.164794921875t-0.37841796875,0.079345703125t-0.311279296875,0.01220703125q-0.76904296875,0-1.171875-0.57373046875t-0.579833984375-1.373291015625t-0.189208984375-1.641845703125t-0.01220703125-1.3671875q0-1.07421875,0.042724609375-2.197265625t0.103759765625-2.2216796875t0.1708984375-2.1484375t0.25634765625-1.953125q-0.42724609375,0.048828125-0.836181640625,0.10986328125t-0.836181640625,0.06103515625q-0.09765625,0-0.262451171875-0.01220703125t-0.311279296875-0.06103515625t-0.250244140625-0.13427734375t-0.103759765625-0.244140625z M104.82202148438,42.2802734375q0-0.35400390625,0.030517578125-0.74462890625t0.054931640625-0.732421875l0.0732421875-1.8310546875q0.1220703125-2.197265625,0.299072265625-4.3212890625t0.299072265625-4.296875q0.0732421875-1.1962890625,0.10986328125-2.349853515625t0.10986328125-2.349853515625q-0.048828125-0.09765625-0.048828125-0.13427734375q0-0.1708984375,0.128173828125-0.2685546875t0.299072265625-0.164794921875t0.360107421875-0.091552734375t0.286865234375-0.0244140625l0.28076171875,0q0.37841796875,0.048828125,0.54931640625,0.238037109375t0.2197265625,0.45166015625t0.0244140625,0.5615234375t-0.0244140625,0.555419921875q0,1.77001953125-0.08544921875,3.607177734375t-0.1953125,3.6865234375t-0.201416015625,3.69873046875t-0.091552734375,3.656005859375l0,0.8544921875q0,0.57373046875-0.323486328125,0.7568359375t-0.897216796875,0.18310546875q-0.50048828125,0-0.87890625-0.2197265625t-0.37841796875-0.72021484375z M110.42102050781,38.447265625q0-0.8544921875,0.189208984375-2.01416015625t0.640869140625-2.197265625t1.190185546875-1.763916015625t1.861572265625-0.726318359375q1.0498046875,0,1.57470703125,0.604248046875t0.52490234375,1.629638671875q0,0.67138671875-0.250244140625,1.470947265625t-0.714111328125,1.513671875t-1.0986328125,1.190185546875t-1.416015625,0.47607421875l-0.3173828125-0.0244140625q0,0.32958984375,0.09765625,0.885009765625t0.286865234375,1.104736328125t0.48828125,0.96435546875t0.726318359375,0.4150390625q0.62255859375,0,1.1962890625-0.50048828125t1.08642578125-1.11083984375t0.9521484375-1.11083984375t0.8056640625-0.50048828125q0.1953125,0,0.40283203125,0.06103515625t0.23193359375,0.341796875q0,0.1708984375-0.091552734375,0.28076171875t-0.164794921875,0.244140625q-0.37841796875,0.64697265625-0.823974609375,1.23291015625t-1.007080078125,1.06201171875t-1.226806640625,0.750732421875t-1.470947265625,0.274658203125q-1.0498046875,0-1.74560546875-0.372314453125t-1.123046875-1.0009765625t-0.616455078125-1.45263671875t-0.189208984375-1.727294921875z M112.60607910156,37.51953125l0.341796875,0.30517578125q0.244140625,0.2197265625,0.48828125,0.09765625t0.439453125-0.445556640625t0.360107421875-0.799560546875t0.29296875-0.9765625t0.189208984375-0.9765625t0.06103515625-0.79345703125l0-0.4150390625t-0.03662109375-0.439453125t-0.128173828125-0.347900390625t-0.286865234375-0.177001953125q-0.06103515625-0.01220703125-0.10986328125-0.01220703125q-0.4150390625,0-0.7080078125,0.52490234375q-0.3173828125,0.5859375-0.5126953125,1.422119140625t-0.28076171875,1.715087890625t-0.10986328125,1.318359375z M125.40930175781,25.269775390625q-0.030517578125-0.372314453125,0.048828125-0.64697265625t0.3173828125-0.45166015625t0.762939453125-0.177001953125l1.96533203125,0q0.40283203125,0,1.055908203125,0.042724609375t1.40380859375,0.128173828125t1.495361328125,0.262451171875t1.361083984375,0.439453125t1.0009765625,0.64697265625t0.384521484375,0.909423828125q0,0.74462890625-0.433349609375,1.397705078125t-1.08642578125,1.177978515625t-1.37939453125,0.933837890625t-1.300048828125,0.738525390625q2.2705078125,0.50048828125,3.55224609375,2.0751953125t1.28173828125,3.9306640625q0,1.2451171875-0.47607421875,2.459716796875t-1.300048828125,2.191162109375t-1.953125,1.57470703125t-2.423095703125,0.59814453125q-0.1708984375,0-0.384521484375-0.03662109375t-0.390625-0.115966796875t-0.30517578125-0.225830078125t-0.128173828125-0.37841796875q0-1.07421875,1.15966796875-1.07421875q0.1953125,0,0.457763671875,0.054931640625t0.408935546875,0.225830078125q0.67138671875-0.28076171875,1.226806640625-0.89111328125t0.93994140625-1.361083984375t0.59814453125-1.57470703125t0.213623046875-1.495361328125q0-0.8056640625-0.238037109375-1.641845703125t-0.689697265625-1.55029296875t-1.11083984375-1.202392578125t-1.513671875-0.6103515625q-0.2197265625-0.0244140625-0.482177734375-0.03662109375l-0.52490234375-0.0244140625t-0.5126953125-0.0732421875t-0.433349609375-0.1953125q0.09765625,2.0263671875,0.250244140625,4.04052734375t0.408935546875,4.04052734375q0.09765625,0.09765625,0.13427734375,0.286865234375t0.06103515625,0.40283203125t0.0244140625,0.408935546875l0,0.32958984375q0,0.2197265625-0.146484375,0.360107421875t-0.347900390625,0.225830078125t-0.42724609375,0.10986328125t-0.396728515625,0.0244140625q-0.54931640625,0-0.84228515625-0.146484375t-0.4150390625-0.42724609375t-0.15869140625-0.640869140625t-0.06103515625-0.787353515625q-0.32958984375-3.40576171875-0.47607421875-6.73828125t-0.146484375-6.73828125q0-0.40283203125-0.030517578125-0.775146484375z M127.66149902344,24.7509765625q0,1.50146484375,0.09765625,3.009033203125t0.1708984375,3.009033203125q0.54931640625-0.32958984375,1.4404296875-0.775146484375t1.727294921875-0.982666015625t1.434326171875-1.18408203125t0.59814453125-1.40380859375q0-0.59814453125-0.7080078125-0.909423828125t-1.64794921875-0.4638671875t-1.837158203125-0.189208984375t-1.275634765625-0.10986328125z M138.32641601562,37.94677734375q0-0.830078125,0.225830078125-1.59912109375t0.677490234375-1.373291015625t1.129150390625-0.96435546875t1.568603515625-0.360107421875q0.54931640625,0,1.214599609375,0.164794921875t1.251220703125,0.48828125t0.9765625,0.823974609375t0.390625,1.1474609375q0,0.30517578125-0.103759765625,0.4638671875t-0.421142578125,0.15869140625l-0.13427734375-0.0244140625q0.35400390625,0.9521484375,0.6103515625,1.953125t0.50048828125,2.001953125q0.09765625,0.1953125,0.146484375,0.347900390625t0.048828125,0.299072265625q0,0.1953125-0.10986328125,0.323486328125t-0.286865234375,0.189208984375t-0.3662109375,0.08544921875t-0.335693359375,0.0244140625q-0.52490234375,0-0.787353515625-0.18310546875t-0.37841796875-0.50048828125t-0.140380859375-0.714111328125t-0.09765625-0.799560546875q-0.146484375,0.47607421875-0.384521484375,0.927734375t-0.5615234375,0.811767578125t-0.762939453125,0.57373046875t-0.98876953125,0.213623046875q-0.8056640625,0-1.35498046875-0.4638671875t-0.885009765625-1.141357421875t-0.48828125-1.446533203125t-0.152587890625-1.42822265625z M140.05981445312,37.77587890625q0,0.45166015625,0.06103515625,0.9521484375t0.201416015625,0.98876953125t0.360107421875,0.921630859375t0.54931640625,0.762939453125q0.59814453125-0.64697265625,0.885009765625-1.57470703125t0.5126953125-1.788330078125t0.5126953125-1.47705078125t0.885009765625-0.616455078125q0.37841796875,0,0.634765625,0.13427734375q-0.1220703125-0.30517578125-0.40283203125-0.592041015625t-0.628662109375-0.52490234375t-0.72021484375-0.390625t-0.701904296875-0.152587890625q-0.09765625,0-0.225830078125,0.030517578125t-0.201416015625,0.006103515625q-0.50048828125,0.146484375-0.823974609375,0.506591796875t-0.52490234375,0.848388671875t-0.286865234375,1.0009765625t-0.08544921875,0.96435546875z M148.91809082031,38.0078125l0-0.35400390625q0-0.439453125,0.0244140625-0.830078125q0.0244140625-0.54931640625,0.0244140625-0.9033203125q0-0.1953125,0.0244140625-0.445556640625t0.1220703125-0.396728515625q0.1220703125-0.1220703125,0.286865234375-0.250244140625t0.360107421875-0.128173828125q0.62255859375,0,0.9765625,0.140380859375t0.37841796875,0.579833984375l0.048828125,0.37841796875q0.2197265625-0.52490234375,0.5859375-1.300048828125t0.848388671875-1.47705078125t1.08642578125-1.1962890625t1.275634765625-0.494384765625q0.62255859375,0,1.025390625,0.5859375t0.640869140625,1.495361328125t0.335693359375,2.0263671875t0.13427734375,2.191162109375t0.048828125,1.959228515625t0.08544921875,1.336669921875q0.048828125,0.37841796875,0.164794921875,0.799560546875t0.115966796875,0.775146484375q0,0.09765625-0.140380859375,0.189208984375t-0.299072265625,0.152587890625t-0.323486328125,0.09765625t-0.238037109375,0.03662109375q-0.47607421875,0-0.677490234375-0.714111328125t-0.250244140625-1.788330078125t-0.048828125-2.325439453125t-0.08544921875-2.325439453125t-0.347900390625-1.788330078125t-0.836181640625-0.738525390625q-0.52490234375,0-1.08642578125,0.677490234375t-0.96435546875,1.800537109375q-0.390625,1.123046875-0.537109375,2.55126953125q-0.048828125,0.45166015625-0.048828125,0.9033203125q0,0.98876953125,0.20751953125,1.9775390625q0.0244140625,0.1708984375-0.140380859375,0.25634765625t-0.408935546875,0.13427734375t-0.494384765625,0.06103515625t-0.384521484375,0.01220703125q-0.47607421875,0-0.762939453125-0.335693359375t-0.445556640625-0.860595703125t-0.213623046875-1.177978515625t-0.067138671875-1.287841796875z M160.01025390625,37.51953125q0-0.67138671875,0.128173828125-1.434326171875t0.439453125-1.397705078125t0.860595703125-1.0498046875t1.40380859375-0.4150390625q0.57373046875,0,1.11083984375,0.189208984375t1.01318359375,0.518798828125q0.146484375-0.244140625,0.4638671875-0.299072265625t0.5615234375-0.054931640625q0.09765625,0,0.274658203125,0.01220703125t0.347900390625,0.0732421875t0.299072265625,0.146484375t0.152587890625,0.244140625q0.09765625,0.8544921875,0.13427734375,1.702880859375t0.10986328125,1.690673828125q0.1220703125,1.57470703125,0.37841796875,3.11279296875t0.25634765625,3.11279296875q0,0.74462890625-0.067138671875,1.611328125t-0.35400390625,1.605224609375t-0.836181640625,1.226806640625t-1.52587890625,0.48828125q-0.87890625,0-1.348876953125-0.311279296875t-0.848388671875-1.043701171875q0.0244140625-0.244140625,0.311279296875-0.323486328125t0.494384765625-0.079345703125q0.1953125,0,0.396728515625,0.03662109375t0.323486328125,0.1220703125l0.30517578125,0.1953125q0.45166015625-0.927734375,0.54931640625-2.0263671875t0.09765625-2.1240234375q0-0.8544921875-0.08544921875-1.690673828125t-0.1708984375-1.678466796875q-0.8544921875,1.55029296875-2.60009765625,1.55029296875q-0.8056640625,0-1.312255859375-0.341796875t-0.78125-0.86669921875t-0.37841796875-1.18408203125t-0.103759765625-1.318359375z M161.51171875,37.62939453125q0,0.30517578125,0.0244140625,0.787353515625t0.128173828125,0.946044921875t0.299072265625,0.799560546875t0.54931640625,0.335693359375q0.67138671875,0,1.06201171875-0.52490234375t0.616455078125-1.251220703125t0.360107421875-1.50146484375t0.341796875-1.275634765625q-0.0244140625-0.1708984375-0.0244140625-0.335693359375l0-0.335693359375q-0.28076171875-0.52490234375-0.81787109375-0.909423828125t-1.11083984375-0.518798828125q-0.0732421875-0.01220703125-0.13427734375-0.01220703125q-0.341796875,0-0.5615234375,0.40283203125q-0.28076171875,0.48828125-0.439453125,1.165771484375t-0.225830078125,1.336669921875t-0.067138671875,0.89111328125z M170.44323730469,42.2802734375q0-0.35400390625,0.030517578125-0.74462890625t0.054931640625-0.732421875l0.0732421875-1.8310546875q0.1220703125-2.197265625,0.299072265625-4.3212890625t0.299072265625-4.296875q0.0732421875-1.1962890625,0.10986328125-2.349853515625t0.10986328125-2.349853515625q-0.048828125-0.09765625-0.048828125-0.13427734375q0-0.1708984375,0.128173828125-0.2685546875t0.299072265625-0.164794921875t0.360107421875-0.091552734375t0.286865234375-0.0244140625l0.28076171875,0q0.37841796875,0.048828125,0.54931640625,0.238037109375t0.2197265625,0.45166015625t0.0244140625,0.5615234375t-0.0244140625,0.555419921875q0,1.77001953125-0.08544921875,3.607177734375t-0.1953125,3.6865234375t-0.201416015625,3.69873046875t-0.091552734375,3.656005859375l0,0.8544921875q0,0.57373046875-0.323486328125,0.7568359375t-0.897216796875,0.18310546875q-0.50048828125,0-0.87890625-0.2197265625t-0.37841796875-0.72021484375z M176.04223632812,37.94677734375q0-0.830078125,0.225830078125-1.59912109375t0.677490234375-1.373291015625t1.129150390625-0.96435546875t1.568603515625-0.360107421875q0.54931640625,0,1.214599609375,0.164794921875t1.251220703125,0.48828125t0.9765625,0.823974609375t0.390625,1.1474609375q0,0.30517578125-0.103759765625,0.4638671875t-0.421142578125,0.15869140625l-0.13427734375-0.0244140625q0.35400390625,0.9521484375,0.6103515625,1.953125t0.50048828125,2.001953125q0.09765625,0.1953125,0.146484375,0.347900390625t0.048828125,0.299072265625q0,0.1953125-0.10986328125,0.323486328125t-0.286865234375,0.189208984375t-0.3662109375,0.08544921875t-0.335693359375,0.0244140625q-0.52490234375,0-0.787353515625-0.18310546875t-0.37841796875-0.50048828125t-0.140380859375-0.714111328125t-0.09765625-0.799560546875q-0.146484375,0.47607421875-0.384521484375,0.927734375t-0.5615234375,0.811767578125t-0.762939453125,0.57373046875t-0.98876953125,0.213623046875q-0.8056640625,0-1.35498046875-0.4638671875t-0.885009765625-1.141357421875t-0.48828125-1.446533203125t-0.152587890625-1.42822265625z M177.77563476562,37.77587890625q0,0.45166015625,0.06103515625,0.9521484375t0.201416015625,0.98876953125t0.360107421875,0.921630859375t0.54931640625,0.762939453125q0.59814453125-0.64697265625,0.885009765625-1.57470703125t0.5126953125-1.788330078125t0.5126953125-1.47705078125t0.885009765625-0.616455078125q0.37841796875,0,0.634765625,0.13427734375q-0.1220703125-0.30517578125-0.40283203125-0.592041015625t-0.628662109375-0.52490234375t-0.72021484375-0.390625t-0.701904296875-0.152587890625q-0.09765625,0-0.225830078125,0.030517578125t-0.201416015625,0.006103515625q-0.50048828125,0.146484375-0.823974609375,0.506591796875t-0.52490234375,0.848388671875t-0.286865234375,1.0009765625t-0.08544921875,0.96435546875z M186.62170410156,37.80029296875q0-0.9521484375,0.201416015625-1.727294921875t0.640869140625-1.312255859375t1.153564453125-0.836181640625t1.739501953125-0.299072265625q0.57373046875,0,1.171875,0.152587890625t1.025390625,0.567626953125q0-0.244140625,0.048828125-1.007080078125t0.1220703125-1.776123046875t0.152587890625-2.1240234375t0.140380859375-2.06298828125t0.10986328125-1.59912109375t0.0732421875-0.732421875q0.1220703125-0.35400390625,0.45166015625-0.421142578125t0.62255859375-0.067138671875q0.76904296875,0,0.946044921875,0.244140625t0.177001953125,0.9765625q0,2.67333984375-0.238037109375,5.322265625t-0.238037109375,5.322265625q0,1.72119140625,0.067138671875,3.460693359375t0.482177734375,3.424072265625l0.13427734375,0.1220703125l0.0732421875,0.2197265625l-0.18310546875,0.28076171875q-0.4638671875,0.29296875-1.07421875,0.29296875l-0.048828125,0q-0.62255859375,0-1.1474609375-0.29296875q-0.1953125-0.1220703125-0.323486328125-0.726318359375t-0.201416015625-1.33056640625t-0.10986328125-1.397705078125t-0.06103515625-0.9521484375q-0.42724609375,0.9765625-1.165771484375,1.678466796875t-1.861572265625,0.701904296875q-0.87890625,0-1.4404296875-0.37841796875t-0.872802734375-0.96435546875t-0.439453125-1.312255859375t-0.128173828125-1.446533203125z M188.09875488281,37.87353515625q0,0.28076171875,0.067138671875,0.830078125t0.213623046875,1.0986328125t0.408935546875,0.9765625t0.689697265625,0.42724609375q0.57373046875-0.28076171875,1.03759765625-0.933837890625t0.799560546875-1.4404296875t0.52490234375-1.57470703125t0.189208984375-1.361083984375q0-0.72021484375-0.52490234375-1.1962890625t-1.25732421875-0.47607421875q-0.2197265625,0-0.445556640625,0.08544921875t-0.421142578125,0.1953125q-0.45166015625,0.42724609375-0.701904296875,0.775146484375t-0.37841796875,0.72021484375t-0.164794921875,0.823974609375t-0.03662109375,1.0498046875z M198.177734375,38.447265625q0-0.8544921875,0.189208984375-2.01416015625t0.640869140625-2.197265625t1.190185546875-1.763916015625t1.861572265625-0.726318359375q1.0498046875,0,1.57470703125,0.604248046875t0.52490234375,1.629638671875q0,0.67138671875-0.250244140625,1.470947265625t-0.714111328125,1.513671875t-1.0986328125,1.190185546875t-1.416015625,0.47607421875l-0.3173828125-0.0244140625q0,0.32958984375,0.09765625,0.885009765625t0.286865234375,1.104736328125t0.48828125,0.96435546875t0.726318359375,0.4150390625q0.62255859375,0,1.1962890625-0.50048828125t1.08642578125-1.11083984375t0.9521484375-1.11083984375t0.8056640625-0.50048828125q0.1953125,0,0.40283203125,0.06103515625t0.23193359375,0.341796875q0,0.1708984375-0.091552734375,0.28076171875t-0.164794921875,0.244140625q-0.37841796875,0.64697265625-0.823974609375,1.23291015625t-1.007080078125,1.06201171875t-1.226806640625,0.750732421875t-1.470947265625,0.274658203125q-1.0498046875,0-1.74560546875-0.372314453125t-1.123046875-1.0009765625t-0.616455078125-1.45263671875t-0.189208984375-1.727294921875z M200.36279296875,37.51953125l0.341796875,0.30517578125q0.244140625,0.2197265625,0.48828125,0.09765625t0.439453125-0.445556640625t0.360107421875-0.799560546875t0.29296875-0.9765625t0.189208984375-0.9765625t0.06103515625-0.79345703125l0-0.4150390625t-0.03662109375-0.439453125t-0.128173828125-0.347900390625t-0.286865234375-0.177001953125q-0.06103515625-0.01220703125-0.10986328125-0.01220703125q-0.4150390625,0-0.7080078125,0.52490234375q-0.3173828125,0.5859375-0.5126953125,1.422119140625t-0.28076171875,1.715087890625t-0.10986328125,1.318359375z M208.37878417969,34.79736328125q0-0.50048828125,0.29296875-0.860595703125t0.714111328125-0.5859375t0.921630859375-0.335693359375t0.927734375-0.10986328125q0.32958984375,0,0.87890625,0.09765625t1.07421875,0.29296875t0.909423828125,0.5126953125t0.384521484375,0.74462890625q0,0.1953125-0.146484375,0.347900390625t-0.30517578125,0.152587890625q-0.32958984375,0-0.59814453125-0.213623046875t-0.555419921875-0.45166015625t-0.628662109375-0.45166015625t-0.76904296875-0.213623046875t-0.775146484375,0.274658203125t-0.347900390625,0.726318359375q0,0.74462890625,0.52490234375,1.458740234375t1.153564453125,1.50146484375t1.153564453125,1.654052734375t0.52490234375,1.91650390625q0,0.45166015625-0.189208984375,0.762939453125t-0.50048828125,0.506591796875t-0.701904296875,0.299072265625t-0.7568359375,0.103759765625q-0.40283203125,0-0.93994140625-0.189208984375t-1.01318359375-0.50048828125t-0.799560546875-0.726318359375t-0.323486328125-0.86669921875q0-0.2197265625,0.311279296875-0.28076171875t0.457763671875-0.06103515625q0.0732421875,0,0.225830078125,0.048828125t0.299072265625,0.10986328125t0.262451171875,0.13427734375t0.091552734375,0.15869140625q0.1220703125,0.146484375,0.372314453125,0.433349609375t0.50048828125,0.4638671875t0.439453125,0.128173828125t0.189208984375-0.54931640625q0-0.9521484375-0.5126953125-1.751708984375t-1.116943359375-1.5625t-1.116943359375-1.513671875t-0.5126953125-1.605224609375z M216.98071289062,39.27734375l0-1.1474609375q0-0.62255859375,0.030517578125-1.763916015625t0.079345703125-2.50244140625t0.13427734375-2.838134765625t0.1953125-2.789306640625t0.262451171875-2.349853515625t0.347900390625-1.5380859375q0.1220703125-0.28076171875,0.40283203125-0.35400390625t0.54931640625-0.0732421875q0.42724609375,0,0.750732421875,0.189208984375t0.323486328125,0.689697265625l-0.2197265625,0.244140625q-0.42724609375,2.81982421875-0.54931640625,5.6640625t-0.1708984375,5.6884765625q0.30517578125-0.47607421875,0.689697265625-0.933837890625t0.8544921875-0.811767578125t1.01318359375-0.567626953125t1.190185546875-0.213623046875q0.830078125,0,1.373291015625,0.50048828125t0.897216796875,1.300048828125t0.52490234375,1.788330078125t0.262451171875,1.9775390625t0.128173828125,1.873779296875t0.10986328125,1.470947265625q-0.23193359375,0.3173828125-0.68359375,0.3173828125l-0.03662109375,0q-0.1953125,0-0.42724609375-0.048828125t-0.30517578125-0.244140625l0.0244140625,0.0244140625q-0.1708984375-0.37841796875-0.23193359375-1.092529296875t-0.09765625-1.57470703125t-0.128173828125-1.763916015625t-0.274658203125-1.6357421875t-0.537109375-1.20849609375t-0.9521484375-0.50048828125l-0.0732421875,0q-0.72021484375,0-1.20849609375,0.439453125q-0.5126953125,0.4638671875-0.830078125,1.220703125t-0.48828125,1.6845703125t-0.262451171875,1.788330078125t-0.140380859375,1.5625t-0.1220703125,1.031494140625q-0.0732421875,0.28076171875-0.433349609375,0.372314453125t-0.616455078125,0.091552734375q-0.59814453125,0-0.9765625-0.341796875q-0.28076171875-0.67138671875-0.32958984375-1.67236328125t-0.048828125-1.953125z"/><path fill="#" d=""/></svg>
